# xmcd
#
# Track frame offsets: 
#        150
#        24429
#        42440
#        63438
#        80821
#        96182
#        109532
#        124457
#        138559
#        154318
#        173891
#        186573
#        198239
#        212026
#        232458
#        253796
#        270407
#
# Disc length: 3921 seconds
#
# Revision: 0
# Processed by: cddbd v1.5.2PL0 Copyright (c) Steve Scherf et al.
# Submitted via: ExactAudioCopy v1.0b2
#
DISCID=050f4f11
DTITLE=Various Artist - Rapstar Compilation BEST＆BEST DISC1
DYEAR=2011
DGENRE=Hip-Hop
TTITLE0=らっぷびと - F+Speeder
TTITLE1=AO - Driview
TTITLE2=Monogh - Starticle
TTITLE3=SandA - Let'sエスコート
TTITLE4=青春やえざくら - 小悪魔DQN
TTITLE5=Snake Production - メトロホリック
TTITLE6=HUMAN NOISE UPSET - ANOTHER WORLD
TTITLE7=politru - AI 
TTITLE8=psychemical - ルアガンダモ
TTITLE9=RESTA - ハートスコープ
TTITLE10=milky - 情熱でジャーニー
TTITLE11=kid×RIPER - Break my silhouette
TTITLE12=即尺モルタル - SSM Pt.2
TTITLE13=Art neon - Skip Skip
TTITLE14=Pentaphonic - Ext (Radio Edit)
TTITLE15=Seiho - HiFi-Neo Soul
TTITLE16=らっぷびと feat. OROCHI,歩く性教育,番犬,振糸 - RAPSTAR Remix
EXTD=
EXTT0=
EXTT1=
EXTT2=
EXTT3=
EXTT4=
EXTT5=
EXTT6=
EXTT7=
EXTT8=
EXTT9=
EXTT10=
EXTT11=
EXTT12=
EXTT13=
EXTT14=
EXTT15=
EXTT16=
PLAYORDER=
